<?xml version="1.0" encoding="utf-8"?>
<!-- Generator: Adobe Illustrator 25.2.0, SVG Export Plug-In . SVG Version: 6.00 Build 0)  -->
<svg version="1.1" id="Layer_1" xmlns="http://www.w3.org/2000/svg" xmlns:xlink="http://www.w3.org/1999/xlink" x="0px" y="0px"
	 viewBox="0 0 591 386" style="enable-background:new 0 0 591 386;" xml:space="preserve">
<style type="text/css">
	.st0{clip-path:url(#Mask_2_);}
	.st1{fill:url(#cielo_1_);}
	.st2{fill:#CCF4FF;}
	.st3{fill:url(#SVGID_1_);}
	.st4{opacity:0.8;fill:url(#SVGID_2_);}
	.st5{fill:url(#SVGID_3_);}
	.st6{fill:url(#SVGID_4_);}
	.st7{fill:#F5C9D4;}
	.st8{fill:#FBDECC;}
	.st9{fill:url(#SVGID_5_);}
	.st10{fill:url(#SVGID_6_);}
	.st11{fill:#2C4C7A;}
	.st12{fill:#F9F1E8;}
	.st13{fill:#B46295;}
	.st14{fill:#3F99CD;}
	.st15{fill:#1B3057;}
	.st16{fill:#2DAFE8;}
	.st17{fill-rule:evenodd;clip-rule:evenodd;fill:#2DAFE8;}
	.st18{opacity:0.43;fill:url(#SVGID_7_);}
	.st19{opacity:0.18;fill:url(#SVGID_8_);}
	.st20{fill:#1C275B;}
	.st21{fill:url(#SVGID_9_);}
	.st22{fill:url(#SVGID_10_);}
	.st23{fill:#FC9582;}
	.st24{fill:#25495B;}
	.st25{fill:#C1CCCD;}
	.st26{opacity:0.18;fill:url(#SVGID_11_);}
	.st27{fill:#ED9075;}
	.st28{fill:#D1D6DA;}
	.st29{fill:none;stroke:#25495B;stroke-width:0.5;stroke-miterlimit:10;}
	.st30{fill:none;stroke:#D1D6DA;stroke-width:0.5;stroke-miterlimit:10;}
	.st31{fill:url(#SVGID_12_);}
	.st32{fill:url(#SVGID_13_);}
	.st33{fill:url(#SVGID_14_);}
	.st34{fill:url(#SVGID_15_);}
	.st35{fill:#F6F2EA;}
	.st36{fill:url(#SVGID_16_);}
</style>
<g>
	<defs>
		<path id="Mask_1_" d="M591.9-0.2C591,194,591,294,591.9,387.4c-165-1.7-318.4-0.8-510.6-1.1c-5.1,0-6.5-8-9.8-12.2
			c-50.5-66,78-147.5-11-225.5C1.9,97.1-7.9,45.2,7.2-0.1L591.9-0.2z"/>
	</defs>
	<clipPath id="Mask_2_">
		<use xlink:href="#Mask_1_"  style="overflow:visible;"/>
	</clipPath>
	<g id="ilustracion" class="st0">
		<linearGradient id="cielo_1_" gradientUnits="userSpaceOnUse" x1="247.8503" y1="368.5276" x2="363.9254" y2="-48.8434">
			<stop  offset="0" style="stop-color:#CCF4FF"/>
			<stop  offset="0.3578" style="stop-color:#AFE7FB"/>
			<stop  offset="1" style="stop-color:#71CCF2"/>
		</linearGradient>
		<rect id="cielo" x="0.8" y="-0.4" class="st1" width="591.6" height="387.1"/>
		<g id="nubes">
			<rect x="501.4" y="189" class="st2" width="48.9" height="160.3"/>
			<rect x="549.7" y="230.2" class="st2" width="40.6" height="41.8"/>
			<polygon class="st2" points="305.4,272 305.4,298.1 182.8,297.3 182.8,271.2 			"/>
			<polygon class="st2" points="227.2,249.8 227.2,271.5 204.9,272.3 204.9,249.8 			"/>
			<linearGradient id="SVGID_1_" gradientUnits="userSpaceOnUse" x1="177.9338" y1="118.6658" x2="258.1624" y2="118.6658">
				<stop  offset="0" style="stop-color:#CCF4FF"/>
				<stop  offset="1" style="stop-color:#CCF4FF;stop-opacity:0.2"/>
			</linearGradient>
			<path class="st3" d="M177.9,126.7c0,0,70.3,0,80.2,0c-9.9-3.2-19.8-14-28.4-15.8c-8.6-1.8-16.2,8.1-20.3,8.6
				c-4.1,0.5-10.4-1.4-16.7,0C186.5,120.8,177.9,126.7,177.9,126.7z"/>
			<linearGradient id="SVGID_2_" gradientUnits="userSpaceOnUse" x1="422.4361" y1="31.449" x2="502.6648" y2="31.449">
				<stop  offset="0" style="stop-color:#CCF4FF"/>
				<stop  offset="1" style="stop-color:#CCF4FF;stop-opacity:0.2"/>
			</linearGradient>
			<path class="st4" d="M422.4,39.4c0,0,70.3,0,80.2,0c-9.9-3.2-19.8-14-28.4-15.8c-8.6-1.8-16.2,8.1-20.3,8.6
				c-4.1,0.5-10.4-1.4-16.7,0C431,33.6,422.4,39.4,422.4,39.4z"/>
		</g>
		<g id="piso">
			<linearGradient id="SVGID_3_" gradientUnits="userSpaceOnUse" x1="297.5847" y1="360.477" x2="297.3901" y2="388.7224">
				<stop  offset="0" style="stop-color:#FB757A"/>
				<stop  offset="0.5034" style="stop-color:#F99180"/>
				<stop  offset="1" style="stop-color:#F9AD95"/>
			</linearGradient>
			<rect x="2.3" y="361.9" class="st5" width="590.4" height="25.6"/>
			<linearGradient id="SVGID_4_" gradientUnits="userSpaceOnUse" x1="43.2546" y1="348.4185" x2="591.9105" y2="348.4185">
				<stop  offset="0" style="stop-color:#FB757A"/>
				<stop  offset="0.5034" style="stop-color:#F99180"/>
				<stop  offset="1" style="stop-color:#F9AD95"/>
			</linearGradient>
			<rect x="43.3" y="333.5" class="st6" width="548.7" height="29.7"/>
			<rect x="32.5" y="298.1" class="st7" width="560" height="35.2"/>
			<polygon class="st8" points="91.5,362.6 124,333.5 311.6,333.5 380,362.6 			"/>
		</g>
		<g id="pared">
			<linearGradient id="SVGID_5_" gradientUnits="userSpaceOnUse" x1="49.4347" y1="4.0214" x2="46.7313" y2="396.4867">
				<stop  offset="0" style="stop-color:#FB757A"/>
				<stop  offset="0.5034" style="stop-color:#F99180"/>
				<stop  offset="1" style="stop-color:#F9AD95"/>
			</linearGradient>
			<polygon class="st9" points="94.9,359.5 1.6,407.9 1.6,-3.6 94.9,-3.6 			"/>
			<linearGradient id="SVGID_6_" gradientUnits="userSpaceOnUse" x1="112.9109" y1="3.3479" x2="110.5074" y2="352.2875">
				<stop  offset="0" style="stop-color:#F8E9CC"/>
				<stop  offset="1" style="stop-color:#F7D18F"/>
			</linearGradient>
			<polygon class="st10" points="128.7,336.2 94.9,362.6 94.9,-3.6 128.7,-3.6 			"/>
		</g>
		<g id="canvas">
			<polygon class="st11" points="310,257.7 295.7,333 287.5,333 303.1,256.3 			"/>
			<polygon class="st12" points="279.9,333 287.4,333 303.1,256.3 294.1,256.3 			"/>
			<polygon class="st12" points="487.7,333.1 479.9,333.2 416.1,185.3 425.1,181.2 			"/>
			<polygon class="st11" points="495.6,333.2 423.7,163.9 420.2,179.1 487.6,333.2 			"/>
			<polygon class="st11" points="396.7,257.7 411.3,333.2 403.6,333.2 385.8,249.4 			"/>
			<polygon class="st12" points="380.3,256.3 395.3,333.1 403.6,333.2 388.8,255.9 			"/>
			<polygon class="st12" points="439.5,91.6 303.8,91.6 274.1,252.2 408.5,252.2 			"/>
			<path class="st13" d="M261,263.9l0.7-11.7h168.2v11.7C429.9,263.9,261,261.8,261,263.9z"/>
			<polygon class="st14" points="447.8,91.6 439.5,91.6 408.5,252.2 418.9,252.2 			"/>
			<path class="st15" d="M443,252.2v11.7h-13.1v-11.7C429.9,252.2,441.5,252.2,443,252.2z"/>
			<g id="logo_1_">
				<g>
					<path class="st16" d="M315.4,196.4l4.8-24.9h6.2l-1.2,6.2h12.5l1.2-6.2h6.2l-4.8,24.9h-6.2l2.4-12.5h-12.5l-2.4,12.5H315.4z
						 M327.7,165.3l-1.2,6.2h12.5l1.2-6.2H327.7z"/>
					<path class="st16" d="M343.2,196.4l6-31.2h18.7l-1.2,6.2h-12.5l-1.2,6.2h12.5l-1.2,6.2h-12.5l-2.4,12.5H343.2z M358.1,184h6.2
						l-1.2,6.2h-6.2L358.1,184z M366.7,171.5h6.2l-1.2,6.2h-6.2L366.7,171.5z M363.1,190.2h6.2l-1.2,6.2h-6.2L363.1,190.2z"/>
					<path class="st16" d="M377.4,196.4l4.8-24.9h-6.2l1.2-6.2h18.7l-1.2,6.2h-6.2l-4.8,24.9H377.4z"/>
				</g>
				<g>
					<path id="Fill-14_1_" class="st17" d="M326.5,150.2c-0.1,0.7-0.3,1.4-0.4,2.1c-0.1,0.4,0,0.6,0.4,0.6c1.3,0,2.7,0,4,0
						c0.7,0,1.2-0.4,1.3-1.1c0.2-1,0.4-2.1,0.6-3.1c0.1-0.7-0.2-1.1-1-1.1c-1.3,0-2.5,0-3.8,0c-0.5,0-0.7,0.2-0.8,0.7
						C326.8,148.9,326.7,149.6,326.5,150.2 M324.1,152.8c0.4-2.1,0.8-4.2,1.2-6.4c0.1-0.6,0.3-0.8,0.9-0.8c1.9,0,3.8,0,5.8,0
						c1.6,0,2.7,1.2,2.4,2.8c-0.2,1.2-0.4,2.4-0.7,3.6c-0.4,1.5-1.8,2.7-3.3,2.7c-1.3,0-2.6,0-3.9,0c-0.7,0-0.9,0.2-1,0.8
						c-0.2,1.2-0.4,2.5-0.7,3.7c-0.1,0.5-0.4,1-1.1,1.1c-0.5,0-0.8-0.2-0.9-0.7c0-0.2,0-0.4,0.1-0.7
						C323.3,157,323.7,154.9,324.1,152.8"/>
					<path id="Fill-16_1_" class="st17" d="M367.8,150.2c-0.1,0.7-0.3,1.4-0.4,2.1c-0.1,0.4,0,0.6,0.5,0.6c1.3,0,2.6,0,3.9,0
						c0.8,0,1.2-0.4,1.4-1.1c0.2-1,0.4-2.1,0.6-3.1c0.1-0.7-0.2-1.1-1-1.1c-1.2,0-2.5,0-3.7,0c-0.6,0-0.8,0.2-0.9,0.7
						C368.1,148.9,367.9,149.6,367.8,150.2 M365.4,152.8c0.4-2.1,0.8-4.2,1.2-6.4c0.1-0.7,0.4-0.8,1-0.8c1.9,0,3.8,0,5.8,0
						c1.6,0,2.6,1.2,2.4,2.8c-0.2,1.2-0.4,2.4-0.7,3.6c-0.4,1.6-1.8,2.8-3.4,2.8c-1.3,0-2.7,0-4,0c-0.5,0-0.7,0.2-0.8,0.7
						c-0.2,1.2-0.4,2.4-0.7,3.6c-0.1,0.7-0.4,1.3-1.2,1.3c-0.7,0-0.9-0.5-0.8-1.2C364.5,157.1,365,154.9,365.4,152.8"/>
					<path id="Fill-18_1_" class="st17" d="M345.3,153.1c0-0.3,0.1-0.6,0-0.8c-0.4-1.4-0.8-2.9-1.3-4.3c-0.2-0.6-0.7-0.6-1.1,0
						c-1,1.4-1.9,2.7-2.8,4.1c-0.5,0.7-0.5,1.4-0.3,2.1c0.4,1.2,0.8,2.5,1.1,3.7c0.1,0.3,0.2,0.6,0.5,0.6c0.3,0,0.5-0.3,0.7-0.5
						c0.9-1.3,1.8-2.6,2.7-3.9C345.1,153.8,345.3,153.4,345.3,153.1 M337.8,153.1c0.1-0.5,0.2-1,0.5-1.4c1.1-1.6,2.1-3.3,3.3-4.9
						c1.3-1.7,3.7-1.6,4.3,0.2c0.5,1.4,0.9,2.9,1.3,4.3c0.3,1.2,0.1,2.4-0.7,3.5c-0.9,1.4-1.8,2.7-2.7,4c-0.7,1-1.6,1.7-2.8,1.6
						c-1.1,0-1.8-0.6-2-1.6c-0.4-1.2-0.7-2.5-1.1-3.7C337.7,154.4,337.6,153.8,337.8,153.1"/>
					<path id="Fill-20_1_" class="st17" d="M356.9,150.5c-0.1,0-0.1,0-0.2,0c-0.4,0.9-0.9,1.8-1.3,2.6c-0.3,0.7-1.2,1.7-0.8,2.1
						c0.4,0.4,1.5,0.1,2.3,0.1c0.4,0,0.4-0.1,0.4-0.5C357.2,153.4,357.1,151.9,356.9,150.5 M358.6,160.4c-0.6,0-0.7-0.4-0.8-0.8
						c-0.1-0.6-0.2-1.2-0.2-1.8c0-0.5-0.2-0.6-0.7-0.6c-1,0-2,0-3,0c-0.4,0-0.7,0.1-0.9,0.6c-0.3,0.6-0.6,1.2-0.9,1.9
						c-0.3,0.7-0.8,0.9-1.3,0.7c-0.7-0.2-0.7-0.7-0.4-1.3c0.7-1.5,1.4-2.9,2.1-4.4c1.3-2.7,2.6-5.4,3.9-8c0.2-0.4,0.4-0.9,0.9-1
						c0.6-0.1,1.1,0,1.1,0.7c0.4,4.3,0.8,8.6,1.2,12.8C359.9,159.9,359.3,160.5,358.6,160.4"/>
				</g>
				<path class="st17" d="M381.7,141.9l-3.6,18.9h18.9l3.6-18.9H381.7z M391.6,152.5c-0.9,1.3-1.8,2.6-2.7,3.9
					c-0.2,0.3-0.4,0.5-0.7,0.5c-0.4,0-0.5-0.3-0.5-0.6c-0.4-1.2-0.8-2.5-1.1-3.7c-0.2-0.7-0.2-1.4,0.3-2.1c0.9-1.4,1.8-2.8,2.8-4.1
					c0.4-0.6,0.9-0.6,1.1,0c0.5,1.4,0.9,2.8,1.3,4.3c0.1,0.2,0,0.5,0,0.8C392,151.8,391.9,152.1,391.6,152.5z"/>
			</g>
			<g id="PIxels_1_">
				<polygon class="st16" points="309.5,120.8 315.7,120.8 314.5,127 308.3,127 				"/>
				<polygon class="st16" points="302,126.9 308.3,126.9 307.1,133.1 300.8,133.1 				"/>
				<polygon class="st16" points="402.9,154.9 409.1,154.9 407.9,161.1 401.7,161.1 				"/>
			</g>
		</g>
		<g id="person1">
			<linearGradient id="SVGID_7_" gradientUnits="userSpaceOnUse" x1="362.6155" y1="386.1667" x2="246.9452" y2="336.7368">
				<stop  offset="0" style="stop-color:#1E5273;stop-opacity:0"/>
				<stop  offset="1" style="stop-color:#1E5273"/>
			</linearGradient>
			<polygon class="st18" points="216.2,355.9 316,357.9 269.9,400.8 292.3,404.4 366.5,333.5 342.1,333.6 322.2,349.8 231.1,351.8 
				281.1,354.1 			"/>
			
				<linearGradient id="SVGID_8_" gradientUnits="userSpaceOnUse" x1="358.3993" y1="213.9625" x2="351.187" y2="248.0343" gradientTransform="matrix(-0.9239 0.3827 -0.3827 -0.9239 729.3206 305.2291)">
				<stop  offset="0" style="stop-color:#1E5273;stop-opacity:0"/>
				<stop  offset="1" style="stop-color:#1E5273"/>
			</linearGradient>
			<polygon class="st19" points="300.4,251.7 310.4,219.3 324.3,195.4 325.7,220.6 317.1,252.6 			"/>
			<g>
				<polygon class="st20" points="212.2,348.3 202.7,346.6 198.8,336.9 209.2,338.9 				"/>
				<linearGradient id="SVGID_9_" gradientUnits="userSpaceOnUse" x1="198.806" y1="275.8723" x2="309.1255" y2="275.8723">
					<stop  offset="0" style="stop-color:#CCF4FF"/>
					<stop  offset="0.3578" style="stop-color:#AFE7FB"/>
					<stop  offset="1" style="stop-color:#71CCF2"/>
				</linearGradient>
				<polygon class="st21" points="309.1,214.9 209.1,338.9 198.8,336.9 299.2,212.9 				"/>
				<polygon class="st14" points="212.2,348.3 312.9,223.1 309.1,214.9 209.1,338.9 				"/>
				
					<linearGradient id="SVGID_10_" gradientUnits="userSpaceOnUse" x1="453.6981" y1="326.3367" x2="478.6908" y2="326.3367" gradientTransform="matrix(0.6277 -0.7784 0.7784 0.6277 -232.9572 366.536)">
					<stop  offset="0" style="stop-color:#F8E9CC"/>
					<stop  offset="1" style="stop-color:#F7D18F"/>
				</linearGradient>
				<polygon class="st22" points="321.2,202.7 312.9,223.1 309.1,214.9 299.2,212.9 316.9,200.6 321.6,198.8 				"/>
				<polygon class="st14" points="324.6,195.1 316.9,200.6 320.7,200.4 320.8,204.2 				"/>
			</g>
			<g>
				<path class="st23" d="M242.8,309.7c-0.8-1.4-2.6-1.6-3.8-0.7s-2.4,4.1-1.4,7c0,0,3.2,0.6,3.9,0
					C242.2,315.4,242.8,309.7,242.8,309.7z"/>
				<path class="st23" d="M225.8,330.3c-0.7,1.6-1.3,2.1-1.2,2.8c0.1,0.7,2.6-1.1,2.6-1.1L225.8,330.3z"/>
				<path class="st23" d="M242.6,300.2c0,0-0.7-2.4-1.3-2.1c-0.6,0.3,0.2,2.4,0.2,2.4L242.6,300.2z"/>
				<path class="st24" d="M217,350c0.1,0.3,2.3-0.3,4.4-1.5c2-1.2-1.4-1.4-1.8-0.9C219.2,348.1,216.8,349.7,217,350z"/>
				<path class="st24" d="M233.2,350.1c0.4,0.3,2.7,0.8,2.8,1.2c0.1,0.5-4,0.5-4.4,0.4c-0.4-0.2,0.2-1.5,0.2-1.5L233.2,350.1z"/>
				<path class="st25" d="M240.3,334.4c0,1.7-4.7,13.3-5.8,16.2c-1.4,0.3-1.1,0.5-2.9,0.2c0.3-3.7,1.8-12.2,2-12.9
					c0.2-0.6-0.3-2.1-2-1.1c-1.7,1.1-8.5,11.7-9.9,11.7c-0.7,0-2.1-0.6-1.8-1.7c2.1-2.8,6.9-14.2,8-15.1S240.3,334.4,240.3,334.4z"
					/>
				<path class="st11" d="M243.4,300.2c0.2,0.3,1.3,4,1.6,10.6c0.1,2.2,0.3,5.2-0.1,7.8c-1.3,10.6-3.6,16.2-4.4,16.9
					c-0.7,0.7-11.4-2.8-13.2-3.4c0,0,5.8-10.5,5.9-11.6c-1,2.5-6.1,11.5-6.2,11.5c-0.3-0.3-1.4-1.7-1.4-1.7s5.9-12.8,8.9-13.4
					s4.9,1.4,6.9-0.8c1.5-1.6,0.4-14.8,0-15.5C241.7,299.9,243.4,300.2,243.4,300.2z"/>
			</g>
		</g>
		<g id="person2">
			
				<linearGradient id="SVGID_11_" gradientUnits="userSpaceOnUse" x1="277.6541" y1="94.7606" x2="273.2277" y2="115.6715" gradientTransform="matrix(1 0 0 1 41.121 0)">
				<stop  offset="0" style="stop-color:#1E5273;stop-opacity:0"/>
				<stop  offset="1" style="stop-color:#1E5273"/>
			</linearGradient>
			<polygon class="st26" points="326.9,91.5 322.2,105.3 310.2,122.4 309.6,105.5 312,91.7 			"/>
			<g>
				<path class="st24" d="M299.6,113.9c0.1,0.3-1.4,1.1-1.6,1.4s-1.3,1.6-1.5,1.5c-0.2-0.2-1.7-1.1-1.7-1.1l0.5-0.7L299.6,113.9z"/>
				<path class="st11" d="M271.3,127.6c-0.2,0.5-0.3,1.4-0.5,2.2c-0.3,0.8-1.1,1.7-0.6,1.9c0.5,0.1,1.9-1.1,2-1.3s1.2-1.7,1.2-1.7
					l-0.4-1.9L271.3,127.6z"/>
				<path class="st27" d="M281.1,82c-0.2,0.4,0.6,3.3,0.6,3.3l1.4-0.1c0,0-0.4-2.3-0.8-2.6C282,82.2,281.1,82,281.1,82z"/>
				<path class="st27" d="M282.3,95.4c0.4,0.5,1.1,2.2-0.2,3.1c-1.4,0.9-2,1.7-5,0.5c-2.9-1.2-0.4-3.3-0.4-3.3s4.1-2.1,4.6-1.7
					C281.8,94.4,282.3,95.4,282.3,95.4z"/>
				<path class="st11" d="M281.5,84.6c0.2,0.3,0,7.4-1,9.3c-1,1.9,1.6,2.3,1.6,2.3s1-2.6,1.5-5.8c0.2-1.3-0.2-5.8-0.2-5.8
					L281.5,84.6z"/>
				<path class="st27" d="M287.1,100.8c0,0,1.5-0.6,2-0.6s-0.9,2.6-2,2.3C286,102.1,287.1,100.8,287.1,100.8z"/>
				<path class="st28" d="M268.9,115.2c0,2,3.2,5,8.3,6.9c-2.1,1.8-4.9,4.1-5.3,4.8c0.9,0.9,1,0.9,1.1,2.7c3.1-1.6,7.7-4.3,8.6-4.9
					s1.6-2.3,1.5-3.2s-0.9-4-5.8-7.2C274.2,115.6,268.9,115.2,268.9,115.2z"/>
				<path class="st28" d="M295.6,114.3c0,0-16.3-2.6-16.6-2.8s-7.1,3.7-7.1,3.7s13.4,2.5,15.5,2.4c2.1-0.2,7.8-0.6,7.9-0.9
					C295.4,116.3,295.6,114.3,295.6,114.3z"/>
				<path class="st11" d="M275.9,93.7c-0.5,0.4-1.3,2.9-0.8,3.3c0.5,0.3,1.4-0.1,1.7-0.5c0.4-0.4,2.5-1,3.4-1s2.5,0.2,2.7-0.7
					c0.2-1-1-3-3.6-2.4S275.9,93.7,275.9,93.7z"/>
				<path class="st11" d="M287.4,100.6c0,0-0.2,1.8-0.2,2.5c-1.4,0.2-9.8,0.7-12.8-1c-3-1.7,1.1-4.3,1.9-4c0.8,0.3,1.9,2.2,4.4,2.3
					C281.6,100.4,287.4,100.6,287.4,100.6z"/>
				<path class="st11" d="M268.3,114.8c0.2,0.5,1.6,0.9,3,0.7c1.4-0.2,5.8-2.4,7.7-4c-1.1-1.2-2.1-1.8-2.3-4.5
					c-0.2-2.5,1.1-5,1.3-5.3c0.2-0.3,0.7-1.6,0.1-2.3c-0.5-0.6-2-1.9-3.2-2.4C266.9,99.5,266.9,109.2,268.3,114.8z"/>
				<path class="st29" d="M277.3,114.3c1.2,0.7,2.6,1.6,3.4,2.6"/>
				<path class="st30" d="M274.9,101.4c0.8,1,1.5,1.2,2.6,1.6"/>
			</g>
			<g>
				<polygon class="st20" points="214.7,-42 220,-50 230.4,-49.8 225,-41.4 				"/>
				
					<linearGradient id="SVGID_12_" gradientUnits="userSpaceOnUse" x1="263.9864" y1="-208.9683" x2="350.2193" y2="-208.9683" gradientTransform="matrix(0.9987 5.091644e-02 -5.091644e-02 0.9987 -53.0468 218.2291)">
					<stop  offset="0" style="stop-color:#CCF4FF"/>
					<stop  offset="0.3578" style="stop-color:#AFE7FB"/>
					<stop  offset="1" style="stop-color:#71CCF2"/>
				</linearGradient>
				<polygon class="st31" points="298.3,100.1 224.5,-41.1 230.4,-49.8 304.1,91.8 				"/>
				<polygon class="st14" points="214.7,-42 289.2,100.3 298.3,100.1 224.5,-41.1 				"/>
				
					<linearGradient id="SVGID_13_" gradientUnits="userSpaceOnUse" x1="583.9069" y1="222.2686" x2="605.5538" y2="222.2686" gradientTransform="matrix(0.4629 0.8864 -0.8864 0.4629 223.2006 -524.6722)">
					<stop  offset="0" style="stop-color:#F8E9CC"/>
					<stop  offset="1" style="stop-color:#F7D18F"/>
				</linearGradient>
				<polygon class="st32" points="304.6,116 289.2,100.3 298.3,100.1 304.1,91.8 308.2,113 				"/>
				<polygon class="st14" points="310.2,122.2 308.2,113 303.4,115.1 				"/>
			</g>
		</g>
		<g id="lampara">
			<linearGradient id="SVGID_14_" gradientUnits="userSpaceOnUse" x1="17.5722" y1="195.5344" x2="189.6059" y2="341.5687">
				<stop  offset="0" style="stop-color:#F8D291;stop-opacity:0.8"/>
				<stop  offset="1" style="stop-color:#F7CF8F;stop-opacity:0.1"/>
			</linearGradient>
			<polygon class="st33" points="288.1,244.4 192,74.4 73.2,73.9 -25.5,428.2 			"/>
			<linearGradient id="SVGID_15_" gradientUnits="userSpaceOnUse" x1="72.3821" y1="44.5255" x2="192.0283" y2="44.5255">
				<stop  offset="0" style="stop-color:#FB757A"/>
				<stop  offset="0.5034" style="stop-color:#F99180"/>
				<stop  offset="1" style="stop-color:#F9AD95;stop-opacity:0.2"/>
			</linearGradient>
			<path class="st34" d="M72.4,74.4c0-33,26.8-59.8,59.8-59.8S192,41.4,192,74.4H72.4z"/>
			<path class="st35" d="M128.7,97.9c-14.6,0-26.5-11.9-26.5-26.5h26.5V97.9z"/>
			
				<radialGradient id="SVGID_16_" cx="134.8963" cy="81.5903" r="13.2521" fx="125.6415" fy="72.1052" gradientUnits="userSpaceOnUse">
				<stop  offset="0" style="stop-color:#F9F1E8;stop-opacity:0"/>
				<stop  offset="1" style="stop-color:#F9F1E8"/>
			</radialGradient>
			<path class="st36" d="M125.8,97.9c14.6,0,26.5-11.9,26.5-26.5h-26.5V97.9z"/>
		</g>
	</g>
</g>
</svg>
