<svg width="42" height="31" viewBox="0 0 42 31" fill="none" xmlns="http://www.w3.org/2000/svg">
<path d="M0 30.685V16.6538H3.50312V20.1569H10.5281V16.6538H14.0312V30.685H10.5281V23.66H3.50312V30.685H0ZM3.50312 13.1506V16.6538H10.5281V13.1506H3.50312Z" fill="#4D5680"/>
<path d="M15.6237 30.685V13.1506H26.1518V16.6538H19.1268V20.1569H26.1518V23.66H19.1268V30.685H15.6237ZM22.6486 23.6787H26.1518V27.1819H22.6486V23.6787ZM26.1518 16.6538H29.6549V20.1569H26.1518V16.6538ZM26.1518 27.1819H29.6549V30.685H26.1518V27.1819Z" fill="#4D5680"/>
<path d="M34.8626 30.685V16.6538H31.3595V13.1506H41.8689V16.6538H38.3657V30.685H34.8626Z" fill="#4D5680"/>
<path fill-rule="evenodd" clip-rule="evenodd" d="M1.2177 4.85198C1.2177 5.24538 1.2177 5.63878 1.2177 6.05091C1.2177 6.27571 1.2739 6.40684 1.53616 6.40684C2.2855 6.38811 3.03483 6.40684 3.78416 6.40684C4.19629 6.40684 4.40235 6.18204 4.42109 5.78864C4.43982 5.20791 4.43982 4.60845 4.42109 4.02772C4.40235 3.63432 4.19629 3.39079 3.74669 3.39079C3.03483 3.39079 2.32296 3.40952 1.6111 3.39079C1.31137 3.39079 1.2177 3.50319 1.23643 3.78418C1.23643 4.12138 1.2177 4.49605 1.2177 4.85198ZM0.149902 6.33191C0.149902 5.13298 0.168636 3.93405 0.149902 2.75385C0.149902 2.41666 0.224836 2.28552 0.599501 2.28552C1.68603 2.30426 2.77256 2.28552 3.84036 2.30426C4.75829 2.30426 5.45142 2.95992 5.48888 3.85912C5.50762 4.55225 5.50762 5.22665 5.48888 5.91978C5.45142 6.78151 4.77702 7.43717 3.91529 7.4559C3.18469 7.47464 2.45409 7.47464 1.7235 7.4559C1.34883 7.43717 1.2739 7.5683 1.2739 7.92424C1.29263 8.61737 1.29263 9.32923 1.2739 10.0224C1.25517 10.3221 1.14277 10.5844 0.786834 10.6218C0.487101 10.6406 0.299769 10.5094 0.187369 10.2472C0.149902 10.1348 0.168636 10.0036 0.168636 9.8725C0.149903 8.67357 0.149902 7.5121 0.149902 6.33191Z" fill="#4D5680"/>
<path fill-rule="evenodd" clip-rule="evenodd" d="M24.447 4.87071C24.447 5.26411 24.4657 5.65751 24.447 6.06964C24.447 6.31318 24.5407 6.40684 24.7842 6.38811C25.5148 6.36938 26.2454 6.38811 26.976 6.38811C27.4069 6.38811 27.6317 6.16331 27.6504 5.75118C27.6691 5.17045 27.6691 4.57098 27.6504 3.99025C27.6317 3.57812 27.4069 3.35332 26.9573 3.37205C26.2641 3.39078 25.5523 3.39078 24.8591 3.37205C24.5407 3.37205 24.4283 3.48445 24.447 3.78418C24.447 4.14012 24.447 4.51478 24.447 4.87071ZM23.3605 6.31318C23.3605 5.11425 23.3792 3.91532 23.3605 2.73512C23.3605 2.36046 23.4729 2.28552 23.8288 2.28552C24.9153 2.30426 26.0019 2.28552 27.0697 2.28552C27.9689 2.28552 28.6807 2.94119 28.7182 3.85912C28.7369 4.53352 28.7369 5.18918 28.7182 5.86358C28.6995 6.76277 28.0063 7.41844 27.1259 7.43717C26.3765 7.4559 25.6272 7.4559 24.8779 7.43717C24.5781 7.43717 24.4845 7.53084 24.5032 7.81184C24.5219 8.50497 24.5219 9.17937 24.5032 9.8725C24.5032 10.2472 24.4283 10.6031 23.9412 10.6031C23.5103 10.6031 23.3792 10.3221 23.3792 9.9287C23.3605 8.72977 23.3605 7.5121 23.3605 6.31318Z" fill="#4D5680"/>
<path fill-rule="evenodd" clip-rule="evenodd" d="M12.1205 6.46306C12.083 6.31319 12.083 6.14459 12.0268 5.99472C11.6334 5.18919 11.2587 4.38366 10.8466 3.59687C10.6593 3.25967 10.3783 3.25967 10.2097 3.6156C9.81626 4.38366 9.4416 5.15173 9.08567 5.93852C8.89833 6.33192 8.95453 6.74406 9.14187 7.13745C9.47906 7.83059 9.835 8.52372 10.1909 9.23558C10.2659 9.40418 10.3595 9.57278 10.5656 9.55405C10.7529 9.55405 10.8279 9.40418 10.9028 9.25431C11.2587 8.52372 11.6334 7.81185 11.9893 7.08125C12.0643 6.87519 12.1205 6.66912 12.1205 6.46306ZM7.88674 6.48179C7.868 6.20079 7.88674 5.91979 7.99914 5.67626C8.43 4.75833 8.84213 3.82167 9.34793 2.9412C9.8912 2.00454 11.2775 2.06074 11.7645 3.03487C12.1767 3.8404 12.5701 4.66466 12.9635 5.47019C13.2819 6.12586 13.2819 6.80025 12.9822 7.45592C12.6263 8.22398 12.2516 8.97331 11.8769 9.72264C11.5959 10.3034 11.1838 10.6593 10.5094 10.6406C9.87246 10.6218 9.46033 10.2846 9.17933 9.72264C8.84213 9.01078 8.4862 8.31765 8.13027 7.62452C7.96167 7.24985 7.84927 6.87519 7.88674 6.48179Z" fill="#4D5680"/>
<path fill-rule="evenodd" clip-rule="evenodd" d="M18.3774 5.00185C18.34 5.00185 18.3025 5.00185 18.2463 5.00185C18.0964 5.48891 17.9466 5.99471 17.8154 6.48177C17.703 6.89391 17.3096 7.43717 17.5906 7.6807C17.8529 7.9055 18.4711 7.7369 18.9207 7.7369C19.1268 7.7369 19.1642 7.6807 19.108 7.47464C18.8458 6.65037 18.6022 5.82611 18.3774 5.00185ZM20.4006 10.6218C20.0822 10.6218 19.951 10.4158 19.8761 10.1535C19.7637 9.8163 19.6513 9.49783 19.5764 9.1419C19.5202 8.8609 19.3703 8.78597 19.108 8.8047C18.546 8.82343 18.0028 8.82343 17.4408 8.8047C17.1972 8.8047 17.0661 8.87963 17.0099 9.12317C16.9162 9.4791 16.7851 9.8163 16.6914 10.1722C16.5978 10.5469 16.3542 10.678 16.017 10.6031C15.6236 10.5094 15.5487 10.191 15.6424 9.85376C15.8672 9.0295 16.1294 8.20523 16.373 7.38097C16.8226 5.88231 17.2722 4.36491 17.7218 2.86625C17.7967 2.64145 17.8529 2.37919 18.1339 2.32299C18.4524 2.24805 18.7334 2.32299 18.8458 2.69765C19.5389 5.11424 20.232 7.5121 20.9252 9.9287C21.0376 10.3034 20.7753 10.6218 20.4006 10.6218Z" fill="#4D5680"/>
<path fill-rule="evenodd" clip-rule="evenodd" d="M31.3782 0V10.6218H41.9999V0H31.3782ZM38.1034 5.93845C37.7475 6.66904 37.3728 7.38091 37.0169 8.1115C36.942 8.26137 36.867 8.41124 36.6797 8.41124C36.4736 8.41124 36.38 8.24264 36.305 8.09277C35.9491 7.39964 35.6119 6.70651 35.256 5.99465C35.0686 5.60125 35.0124 5.20785 35.1998 4.79572C35.5744 4.02765 35.9304 3.24086 36.3238 2.47279C36.5111 2.11686 36.7921 2.11686 36.9607 2.45406C37.3728 3.24086 37.7662 4.04639 38.1409 4.85192C38.2158 4.98305 38.2158 5.15165 38.2346 5.32025C38.2533 5.54505 38.1971 5.75111 38.1034 5.93845Z" fill="#4D5680"/>
</svg>
