<svg width="44" height="44" viewBox="0 0 44 44" fill="none" xmlns="http://www.w3.org/2000/svg">
<path d="M13.8335 32.0833C13.8335 30.0499 14.6412 28.0999 16.079 26.6621C17.5168 25.2243 19.4668 24.4166 21.5002 24.4166C23.5335 24.4166 25.4835 25.2243 26.9213 26.6621C28.3591 28.0999 29.1668 30.0499 29.1668 32.0833H27.2502C27.2502 30.5583 26.6444 29.0957 25.566 28.0174C24.4877 26.9391 23.0252 26.3333 21.5002 26.3333C19.9752 26.3333 18.5126 26.9391 17.4343 28.0174C16.356 29.0957 15.7502 30.5583 15.7502 32.0833H13.8335ZM21.5002 23.4583C18.3233 23.4583 15.7502 20.8851 15.7502 17.7083C15.7502 14.5314 18.3233 11.9583 21.5002 11.9583C24.677 11.9583 27.2502 14.5314 27.2502 17.7083C27.2502 20.8851 24.677 23.4583 21.5002 23.4583ZM21.5002 21.5416C23.6181 21.5416 25.3335 19.8262 25.3335 17.7083C25.3335 15.5903 23.6181 13.8749 21.5002 13.8749C19.3822 13.8749 17.6668 15.5903 17.6668 17.7083C17.6668 19.8262 19.3822 21.5416 21.5002 21.5416Z" fill="#52D2BC"/>
<circle cx="30" cy="31" r="5.25" fill="#52D2BC" stroke="#E0FFFA" stroke-width="2.5"/>
</svg>
